PathFileType	4	(X/Y/Z)	Run_200 02
DataRate	CameraRate	NumFrames	NumMarkers	Units	OrigDataRate	OrigDataStartFrame	OrigNumFrames
100	100	5	42	mm	100	71	128
Frame#	Time	LPSI			RPSI			RTH1			RTH2			RTH3			LTH1			LTH2			LTH3			RTB1			RTB2			RTB3			LTB1			LTB2			LTB3			RCAL			RTOE			RMT5			LCAL			LTOE			LMT5			LACR			RACR			CLAV			C7			RUA1			RUA2			RUA3			RLEL			RMEL			LUA1			LUA2			LUA3			LLEL			LMEL			RFAsuperior			RFAradius			RFAulna			LFAsuperior			LFAradius			LFAulna			RASI			LASI			
		X1	Y1	Z1	X2	Y2	Z2	X3	Y3	Z3	X4	Y4	Z4	X5	Y5	Z5	X6	Y6	Z6	X7	Y7	Z7	X8	Y8	Z8	X9	Y9	Z9	X10	Y10	Z10	X11	Y11	Z11	X12	Y12	Z12	X13	Y13	Z13	X14	Y14	Z14	X15	Y15	Z15	X16	Y16	Z16	X17	Y17	Z17	X18	Y18	Z18	X19	Y19	Z19	X20	Y20	Z20	X21	Y21	Z21	X22	Y22	Z22	X23	Y23	Z23	X24	Y24	Z24	X25	Y25	Z25	X26	Y26	Z26	X27	Y27	Z27	X28	Y28	Z28	X29	Y29	Z29	X30	Y30	Z30	X31	Y31	Z31	X32	Y32	Z32	X33	Y33	Z33	X34	Y34	Z34	X35	Y35	Z35	X36	Y36	Z36	X37	Y37	Z37	X38	Y38	Z38	X39	Y39	Z39	X40	Y40	Z40	X41	Y41	Z41	X42	Y42	Z42	

54	1.34	612.666029	1072.392129	-522.010879	613.070332	1068.548136	-436.599648	761.109003	861.359798	-295.648309	855.276741	745.754335	-306.755293	811.795563	630.408996	-311.119187	726.960603	882.867219	-670.760004	797.469067	767.343666	-649.791485	721.0565759999999	629.086392	-639.093938	791.189622	402.502468	-356.165566	685.812628	375.232869	-306.683331	631.495668	286.412081	-361.93115	741.51474	395.851885	-569.479859	658.71689	340.199414	-631.272077	640.778287	212.963995	-550.384767	445.829625	287.881526	-383.800537	604.132546	117.122735	-367.911708	556.603129	118.511332	-284.952853	461.674415	114.071053	-529.94444	691.693589	68.629003	-554.791994	647.867513	49.237109	-634.193476	789.471198	1511.498501	-657.83078	749.664716	1509.823819	-317.363048	847.868642	1467.794535	-454.435053	713.605278	1548.098962	-505.572764	668.765661	1412.616184	-242.926495	587.088251	1355.464156	-279.8092	606.2276890000001	1314.343858	-215.576233	575.391968	1223.717318	-191.24262	542.345056	1211.331765	-266.953489	754.57406	1417.590327	-760.545086	686.85327	1338.175548	-765.570832	740.673182	1314.169738	-821.933027	750.082672	1233.411865	-861.3383239999999	685.635968	1198.662217	-826.466217	633.659113	1165.137275	-203.872673	818.1157899999999	1129.652936	-290.163559	777.608607	1069.847724	-284.257264	833.016042	1183.854972	-779.792877	899.567324	1203.474897	-638.501748	889.037084	1136.620738	-656.754776	800.442493	991.141363	-356.90657	804.732497	999.8896120000001	-610.1094000000001	
55	1.35	613.711287	1075.946674	-522.868677	612.184858	1072.969739	-437.921049	761.289419	867.610644	-295.402622	857.661911	753.261762	-306.977973	815.85678	637.197051	-311.666402	723.943209	885.292989	-669.737739	791.43568	768.223956	-649.067916	710.71422	632.196139	-637.927905	803.79903	406.601801	-356.834418	699.951066	373.473638	-306.497885	650.513045	281.705922	-361.6459	725.941354	398.299297	-568.771615	642.450502	344.14857	-630.793994	624.4532369999999	216.857418	-551.744563	464.467569	271.128971	-382.559784	635.044971	112.533538	-367.452785	587.859645	110.389404	-284.333926	444.073485	120.15469	-530.317889	672.234968	68.619407	-555.033911	627.755176	49.471791	-633.978166	792.935391	1516.418078	-655.803277	748.460492	1514.982731	-316.583964	847.85281	1472.200291	-452.290435	714.687922	1552.631741	-504.902822	665.106915	1420.22797	-242.889853	582.967004	1364.28294	-280.159243	600.711652	1323.557342	-215.044258	567.692764	1233.72205	-190.533864	534.855562	1221.598187	-266.38142	761.074534	1422.009989	-759.13447	694.2687989999999	1342.507512	-767.2139969999999	750.110493	1317.855082	-820.115241	760.386464	1237.282116	-859.1872519999999	695.606339	1200.939883	-825.367409	625.36593	1174.786468	-202.438211	809.476481	1136.155847	-287.14117	768.462533	1076.938468	-282.065987	843.266915	1191.549278	-775.765455	906.613975	1214.849252	-633.8318420000001	898.941121	1147.302446	-651.330093	798.765427	997.556123	-356.188732	803.513707	1005.550253	-609.370018	
56	1.36	614.430883	1080.252089	-523.542831	611.839115	1078.065106	-439.239949	761.288436	874.616255	-295.296928	859.654255	761.171727	-307.345809	819.128449	644.510229	-311.816607	721.355764	888.537322	-668.555879	785.808347	769.9848	-647.876381	700.637579	636.363345	-636.80233	815.565097	411.101938	-357.269925	713.984744	371.317569	-306.173981	670.069119	276.704197	-361.344117	710.7281400000001	401.870899	-568.2887919999999	626.468364	349.221923	-630.473858	608.503559	221.521596	-553.078188	484.68569	253.421419	-381.435997	666.790541	108.104392	-367.253643	620.091877	102.399358	-283.895484	427.283851	127.268572	-530.855024	653.238605	68.54238100000001	-555.476242	607.839852	49.833225	-633.808351	796.248741	1522.345379	-653.501528	747.129306	1520.780749	-315.722518	847.815516	1477.489888	-449.897748	715.7076479999999	1557.82967	-504.149971	661.596266	1428.350107	-242.835121	579.075783	1373.729389	-280.076798	595.721317	1333.09885	-214.359281	560.483669	1244.087497	-189.867118	527.715793	1232.382525	-265.675279	766.8945649999999	1427.595701	-757.429827	701.170447	1348.179696	-768.242678	758.910118	1322.845337	-817.8924050000001	769.840842	1242.506989	-856.919608	704.7533969999999	1204.645691	-824.096664	617.6122339999999	1184.938901	-200.898773	801.345515	1143.444716	-284.54774	760.109997	1084.687492	-279.38726	852.434988	1200.281306	-771.7405240000001	912.719962	1227.023883	-629.310738	907.61434	1159.149143	-645.883956	797.402365	1004.684839	-355.80027	802.608829	1011.924644	-608.959371	
57	1.37	614.958074	1085.457535	-524.221454	612.026953	1083.701616	-440.343218	761.479223	881.810448	-294.995228	861.122296	769.1859930000001	-307.723099	821.557916	652.082452	-311.547969	719.625363	892.589642	-667.362328	780.862735	772.615679	-646.332407	691.158441	641.483299	-635.8361159999999	826.446847	415.903038	-357.442646	727.826098	368.804987	-305.655991	690.081214	271.579962	-360.881061	696.112033	406.443096	-568.246655	611.046557	355.329471	-630.4223009999999	592.91688	226.790414	-554.1351	506.501786	234.997203	-380.434604	699.269333	104.065523	-367.271356	653.377773	94.644987	-283.80425	411.465276	135.479213	-531.561748	634.617329	68.37415799999999	-556.0167290000001	588.244703	50.391882	-633.763055	799.378064	1528.990629	-651.134762	745.7162080000001	1526.963862	-314.729487	847.7561930000001	1483.447346	-447.350255	716.754262	1563.606208	-503.277433	658.1530289999999	1436.615268	-242.857332	575.447954	1383.509912	-279.806569	591.079962	1342.766478	-213.566637	553.7241739999999	1254.591746	-189.252768	521.059423	1243.338125	-265.07029	772.276375	1434.038887	-755.59276	707.497459	1354.645831	-768.248372	766.917427	1328.857928	-815.523559	778.4848490000001	1248.697494	-854.579292	713.339956	1209.532669	-822.69034	610.3123880000001	1195.18618	-199.429215	793.804818	1151.259911	-282.129049	752.450926	1092.804091	-276.256893	860.562573	1209.620314	-767.7303470000001	917.773386	1239.818781	-624.851268	914.854842	1171.883398	-640.295599	796.338431	1012.067053	-355.288941	802.002882	1018.552586	-608.4256339999999	
58	1.38	615.910262	1091.428609	-525.071014	612.781059	1089.729127	-441.188561	762.1667210000001	888.860186	-294.558391	861.9593139999999	777.014816	-307.962265	822.901446	659.596301	-310.988863	718.86924	897.232783	-666.244389	776.6979679999999	775.9361740000001	-644.7603800000001	682.428657	647.335661	-635.034782	836.432503	420.770278	-357.231627	741.305503	366.045498	-304.885453	710.508537	266.536892	-360.244951	682.079617	411.727524	-568.395953	596.436992	362.253067	-630.642182	577.994087	232.616068	-555.115511	529.957499	216.162085	-379.572995	732.395517	100.727324	-367.302384	687.666692	87.22523700000001	-284.052767	396.743707	144.787397	-532.47298	616.099244	68.087929	-556.439721	569.012836	51.132364	-633.821938	802.341776	1536.060182	-648.7179170000001	744.292516	1533.327231	-313.57137	847.6614	1489.822304	-444.711909	717.854608	1569.831145	-502.206763	654.858641	1444.910707	-242.873273	572.196694	1393.174041	-279.681459	586.676416	1352.450302	-212.739037	547.374285	1265.110213	-188.620772	515.080819	1254.126784	-264.753543	777.420131	1441.04772	-753.7172440000001	713.360154	1361.62869	-767.389821	774.05125	1335.587205	-813.227817	786.249929	1255.449109	-852.154539	721.487941	1215.271031	-821.1892309999999	603.447125	1205.287223	-198.080638	786.9118580000001	1159.406076	-279.546694	745.4208	1101.11736	-272.803151	867.721419	1219.276977	-763.759372	921.768548	1252.966629	-620.419807	920.7830300000001	1185.014053	-634.644223	795.643723	1019.381934	-354.520693	801.766079	1025.113444	-607.635331	
